<mxfile host="app.diagrams.net" modified="2023-11-24T12:43:50.368Z" agent="Mozilla/5.0 (Windows NT 10.0; Win64; x64) AppleWebKit/537.36 (KHTML, like Gecko) Chrome/119.0.0.0 Safari/537.36" etag="mZqIArlVhVHEM7OzisQk" version="22.1.3" type="device">
  <diagram name="Halaman-1" id="OjuM-kFR4XBiuR346b_R">
    <mxGraphModel dx="421" dy="613" grid="1" gridSize="10" guides="1" tooltips="1" connect="1" arrows="1" fold="1" page="1" pageScale="1" pageWidth="827" pageHeight="1169" math="0" shadow="0">
      <root>
        <mxCell id="0" />
        <mxCell id="1" parent="0" />
        <mxCell id="AUrEZIhehdBM-1fF7PC6-9" value="" style="edgeStyle=orthogonalEdgeStyle;rounded=0;orthogonalLoop=1;jettySize=auto;html=1;" parent="1" source="AUrEZIhehdBM-1fF7PC6-1" target="AUrEZIhehdBM-1fF7PC6-2" edge="1">
          <mxGeometry relative="1" as="geometry" />
        </mxCell>
        <mxCell id="AUrEZIhehdBM-1fF7PC6-1" value="Start" style="strokeWidth=2;html=1;shape=mxgraph.flowchart.start_1;whiteSpace=wrap;" parent="1" vertex="1">
          <mxGeometry x="340" y="40" width="100" height="60" as="geometry" />
        </mxCell>
        <mxCell id="AUrEZIhehdBM-1fF7PC6-10" value="" style="edgeStyle=orthogonalEdgeStyle;rounded=0;orthogonalLoop=1;jettySize=auto;html=1;" parent="1" source="AUrEZIhehdBM-1fF7PC6-2" target="AUrEZIhehdBM-1fF7PC6-4" edge="1">
          <mxGeometry relative="1" as="geometry" />
        </mxCell>
        <mxCell id="AUrEZIhehdBM-1fF7PC6-2" value="Masukan Nilai X&lt;br&gt;Masukan Pangkat Y" style="shape=parallelogram;html=1;strokeWidth=2;perimeter=parallelogramPerimeter;whiteSpace=wrap;rounded=1;arcSize=12;size=0.23;" parent="1" vertex="1">
          <mxGeometry x="290" y="170" width="200" height="60" as="geometry" />
        </mxCell>
        <mxCell id="AUrEZIhehdBM-1fF7PC6-3" value="Kembalikan &lt;br&gt;X = X * X&lt;br&gt;Y - 1 (dikurang 1)" style="rounded=1;whiteSpace=wrap;html=1;absoluteArcSize=1;arcSize=0;strokeWidth=2;" parent="1" vertex="1">
          <mxGeometry x="70" y="300" width="160" height="80" as="geometry" />
        </mxCell>
        <mxCell id="AUrEZIhehdBM-1fF7PC6-12" value="" style="edgeStyle=orthogonalEdgeStyle;rounded=0;orthogonalLoop=1;jettySize=auto;html=1;" parent="1" source="AUrEZIhehdBM-1fF7PC6-4" target="AUrEZIhehdBM-1fF7PC6-6" edge="1">
          <mxGeometry relative="1" as="geometry" />
        </mxCell>
        <mxCell id="AUrEZIhehdBM-1fF7PC6-16" value="" style="edgeStyle=orthogonalEdgeStyle;rounded=0;orthogonalLoop=1;jettySize=auto;html=1;" parent="1" source="AUrEZIhehdBM-1fF7PC6-4" target="AUrEZIhehdBM-1fF7PC6-3" edge="1">
          <mxGeometry relative="1" as="geometry" />
        </mxCell>
        <mxCell id="AUrEZIhehdBM-1fF7PC6-4" value="cek&lt;br&gt;&amp;nbsp;pangkat Y = 1" style="strokeWidth=2;html=1;shape=mxgraph.flowchart.decision;whiteSpace=wrap;" parent="1" vertex="1">
          <mxGeometry x="315" y="290" width="150" height="100" as="geometry" />
        </mxCell>
        <mxCell id="AUrEZIhehdBM-1fF7PC6-11" value="" style="edgeStyle=orthogonalEdgeStyle;rounded=0;orthogonalLoop=1;jettySize=auto;html=1;" parent="1" source="AUrEZIhehdBM-1fF7PC6-6" target="AUrEZIhehdBM-1fF7PC6-7" edge="1">
          <mxGeometry relative="1" as="geometry" />
        </mxCell>
        <mxCell id="AUrEZIhehdBM-1fF7PC6-6" value="Kembalikan Nilai X" style="rounded=1;whiteSpace=wrap;html=1;absoluteArcSize=1;arcSize=14;strokeWidth=2;" parent="1" vertex="1">
          <mxGeometry x="310" y="430" width="160" height="80" as="geometry" />
        </mxCell>
        <mxCell id="AUrEZIhehdBM-1fF7PC6-13" value="" style="edgeStyle=orthogonalEdgeStyle;rounded=0;orthogonalLoop=1;jettySize=auto;html=1;" parent="1" source="AUrEZIhehdBM-1fF7PC6-7" target="AUrEZIhehdBM-1fF7PC6-8" edge="1">
          <mxGeometry relative="1" as="geometry" />
        </mxCell>
        <mxCell id="AUrEZIhehdBM-1fF7PC6-7" value="Tampilkan Nilai X" style="shape=parallelogram;html=1;strokeWidth=2;perimeter=parallelogramPerimeter;whiteSpace=wrap;rounded=1;arcSize=12;size=0.23;" parent="1" vertex="1">
          <mxGeometry x="310" y="570" width="160" height="60" as="geometry" />
        </mxCell>
        <mxCell id="AUrEZIhehdBM-1fF7PC6-8" value="End" style="strokeWidth=2;html=1;shape=mxgraph.flowchart.start_1;whiteSpace=wrap;" parent="1" vertex="1">
          <mxGeometry x="340" y="680" width="100" height="60" as="geometry" />
        </mxCell>
        <mxCell id="AUrEZIhehdBM-1fF7PC6-15" style="edgeStyle=orthogonalEdgeStyle;rounded=0;orthogonalLoop=1;jettySize=auto;html=1;exitX=0.5;exitY=0;exitDx=0;exitDy=0;entryX=0.5;entryY=0;entryDx=0;entryDy=0;entryPerimeter=0;" parent="1" source="AUrEZIhehdBM-1fF7PC6-3" target="AUrEZIhehdBM-1fF7PC6-4" edge="1">
          <mxGeometry relative="1" as="geometry" />
        </mxCell>
        <mxCell id="AUrEZIhehdBM-1fF7PC6-17" value="Yes" style="text;html=1;strokeColor=none;fillColor=none;align=center;verticalAlign=middle;whiteSpace=wrap;rounded=0;" parent="1" vertex="1">
          <mxGeometry x="400" y="390" width="60" height="30" as="geometry" />
        </mxCell>
        <mxCell id="AUrEZIhehdBM-1fF7PC6-18" value="No" style="text;html=1;strokeColor=none;fillColor=none;align=center;verticalAlign=middle;whiteSpace=wrap;rounded=0;" parent="1" vertex="1">
          <mxGeometry x="250" y="310" width="60" height="30" as="geometry" />
        </mxCell>
      </root>
    </mxGraphModel>
  </diagram>
</mxfile>
